<svg xmlns="http://www.w3.org/2000/svg" version="1.1" xmlns:xlink="http://www.w3.org/1999/xlink" xmlns:svgjs="http://svgjs.dev/svgjs" width="1000" height="857" viewBox="0 0 1000 857"><g transform="matrix(1,0,0,1,0.2331250480149265,0.3476042725371826)"><svg viewBox="0 0 288 247" data-background-color="#ffffff" preserveAspectRatio="xMidYMid meet" height="857" width="1000" xmlns="http://www.w3.org/2000/svg" xmlns:xlink="http://www.w3.org/1999/xlink"><g id="tight-bounds" transform="matrix(1,0,0,1,-0.06714001382829338,-0.09997365579206985)"><svg viewBox="0 0 288.13422433449705 247.2" height="247.2" width="288.13422433449705"><g><svg viewBox="0 0 288.13422433449705 247.2" height="247.2" width="288.13422433449705"><g><svg viewBox="0 0 288.13422433449705 247.2" height="247.2" width="288.13422433449705"><g id="textblocktransform"><svg viewBox="0 0 288.13422433449705 247.2" height="247.2" width="288.13422433449705" id="textblock"><g><svg viewBox="0 0 288.13422433449705 247.2" height="247.2" width="288.13422433449705"><path d="M287.46 53.02C286.105 27.36 282.245 20.227 282.245 20.227 270.392-6.202 255.6-0.506 242.311 3.292 218.85 3.446 195.484 9.091 172.076 12.119 122.946 12.581 73.395 4.986 24.508 23.717 19.916 29.464-4.764 24.846 0.817 56.304 2.28 69.39 7.617 83.913 7.454 95.922 8.186 98.026 9.202 93.202 9.635 96.23 11.152 104.39 13.631 100.541 15.663 105.365 12.832 118.246 14.864 128.971 16.801 140.21 13.387 143.135 9.012 141.749 7.048 151.449 6.845 158.479 5.747 157.145 4.542 156.837 3.661 156.632 1.887 157.402 2.185 159.608 3.201 167.152-1.161 171.514 1.575 178.904-0.307 186.91 2.876 193.838 2.442 202.511 2.388 204.255 2.686 205.744 3.16 206.154 5.26 208.361 2.198 212.672 2.524 217.342 24.061 249.262 47.428 227.195 69.494 241.872 75.224 231.608 70.916 245.516 73.206 243.36 74.994 240.846 76.294 251.263 78.312 245.362 78.624 243.668 78.15 239.665 79.261 240.435 79.843 240.846 80.358 240.743 80.439 238.382 80.561 234.841 79.491 237.048 79.206 235.201 82.281 225.861 81.523 248.081 84.408 247.158 84.273 244.438 83.433 240.538 85.153 241.051 86.86 237.151 86.914 233.918 88.431 242.693 88.485 244.592 88.756 245.926 89.19 246.85 93.931 237.305 98.645 250.237 103.616 245.926 106.664 241.205 109.59 248.492 112.678 246.696 113.762 245.259 114.859 242.693 115.902 247.004 128.676 247.928 142.289 244.079 154.399 247.158 186.76 241.41 221.343 249.518 255.464 241.923 263.511 238.998 271.868 234.841 279.711 231.506 279.711 231.506 286.064 222.371 286.064 181.316S287.419 145.393 287.622 112.703C287.825 80.013 288.774 78.679 287.419 53.02Z" opacity="1" fill="#ff4136" data-fill-palette-color="tertiary"></path><g transform="matrix(1,0,0,1,55.76832000000002,26.230666666666668)"><svg width="176.59758433449701" viewBox="3.55 -35.10190969443001 32.25 35.56288530418611" height="194.73866666666666" data-palette-color="#ffffff"><path d="M22.55-18.3Q21.35-18.2 20.8-18.2L20.8-18.2Q17.1-17.95 15.1-17.65L15.1-17.65Q14-17.45 12.4-14.95L12.4-14.95Q11.05-12.85 10.55-8.3L10.55-8.3 10-6.5Q9.75-5.6 9.25-4.95L9.25-4.95Q8.95-4.6 8.47-4.38 8-4.15 7.5-4.15L7.5-4.15Q7.75-4.15 7.3-4.7L7.3-4.7Q6.3-6.05 5.83-6.88 5.35-7.7 5.35-8.75L5.35-8.75Q5.35-9.2 5.5-9.8L5.5-9.8Q5.75-10.55 5.8-11.3L5.8-11.3Q5.9-11.6 6-12.18 6.1-12.75 6.25-13.15L6.25-13.15Q6.4-13.6 6.4-14L6.4-14Q6.4-15.1 5.25-16.1L5.25-16.1Q3.55-17.55 3.55-18.75L3.55-18.75Q3.55-20.15 5.75-21.35L5.75-21.35Q5.95-21.45 6.33-21.7 6.7-21.95 7-22L7-22Q8.05-22.25 8.53-22.95 9-23.65 9.35-24.9L9.35-24.9Q10.3-28.2 11.45-32L11.45-32 12-33.8Q12.1-34.15 12.55-35.1L12.55-35.1Q14.75-35.15 15.68-33.9 16.6-32.65 16.6-30.65L16.6-30.65Q16.6-30.35 16.5-29.75L16.5-29.75 16.05-27.75 15.75-26.65 15.25-24 17.9-23.8 24.25-23.25 25.95-28.5 26.35-30.2Q27.8-32.1 28.9-31.1L28.9-31.1Q29.95-30.15 30.73-28.98 31.5-27.8 31.5-26.3L31.5-26.3Q31.5-24.85 30.65-22.6L30.65-22.6Q31.05-22.35 31.6-22.18 32.15-22 32.35-21.95L32.35-21.95Q33.9-21.5 34.75-20.9 35.6-20.3 35.8-18.75L35.8-18.75Q35.2-17.8 34.2-17.5 33.2-17.2 31.85-17.35L31.85-17.35Q31.35-17.4 30.55-17.4L30.55-17.4Q29.45-17.4 29.1-16.95 28.75-16.5 28.25-14.85L28.25-14.85 27.65-12.9Q26.45-9 25.93-6.65 25.4-4.3 25.2-1.75L25.2-1.75Q25.2-1.55 25.18-0.93 25.15-0.3 24.85 0.08 24.55 0.45 23.9 0.45L23.9 0.45Q22.25 0.6 21.9-1.3L21.9-1.3Q20.7-3.95 20.7-6.4L20.7-6.4Q20.7-7.45 20.8-8L20.8-8Q21.35-11.2 22.25-16.15L22.25-16.15 22.55-18.3Z" opacity="1" transform="matrix(1,0,0,1,0,0)" fill="#ffffff" class="undefined-text-0" data-fill-palette-color="quaternary" id="text-0"></path></svg></g></svg></g></svg></g></svg></g><g></g></svg></g><defs></defs></svg><rect width="288.13422433449705" height="247.2" fill="none" stroke="none" visibility="hidden"></rect></g></svg></g></svg>